<svg width="35" height="35" viewBox="0 0 35 35" fill="none" xmlns="http://www.w3.org/2000/svg">
<path d="M13.5625 20.125C13.5625 16.45 14.8313 13.3438 17.3687 10.8063C19.9062 8.26875 23.0125 7 26.6875 7V9.625C23.7417 9.625 21.2552 10.6385 19.2281 12.6656C17.201 14.6927 16.1875 17.1792 16.1875 20.125H13.5625ZM18.8125 20.125C18.8125 17.9375 19.5781 16.0781 21.1094 14.5469C22.6406 13.0156 24.5 12.25 26.6875 12.25V14.875C25.2292 14.875 23.9896 15.3854 22.9688 16.4062C21.9479 17.4271 21.4375 18.6667 21.4375 20.125H18.8125ZM4.8125 6.5625C3.90833 6.5625 3.13542 6.24167 2.49375 5.6C1.85208 4.95833 1.53125 4.18542 1.53125 3.28125C1.53125 2.37708 1.85208 1.60417 2.49375 0.9625C3.13542 0.320833 3.90833 0 4.8125 0C5.71667 0 6.48958 0.320833 7.13125 0.9625C7.77292 1.60417 8.09375 2.37708 8.09375 3.28125C8.09375 4.18542 7.77292 4.95833 7.13125 5.6C6.48958 6.24167 5.71667 6.5625 4.8125 6.5625ZM0 15.0938V11.1562C0 10.5437 0.21875 10.026 0.65625 9.60313C1.09375 9.18021 1.60417 8.96875 2.1875 8.96875H7.4375C8.8375 8.96875 10.0333 8.56042 11.025 7.74375C12.0167 6.92708 12.6583 5.87708 12.95 4.59375H15.6188C15.3854 6.16875 14.7219 7.55417 13.6281 8.75C12.5344 9.94583 11.2 10.7917 9.625 11.2875V15.0938H0ZM30.1875 26.4688C29.2833 26.4688 28.5104 26.1479 27.8687 25.5063C27.2271 24.8646 26.9062 24.0917 26.9062 23.1875C26.9062 22.2833 27.2271 21.5104 27.8687 20.8687C28.5104 20.2271 29.2833 19.9062 30.1875 19.9062C31.0917 19.9062 31.8646 20.2271 32.5063 20.8687C33.1479 21.5104 33.4688 22.2833 33.4688 23.1875C33.4688 24.0917 33.1479 24.8646 32.5063 25.5063C31.8646 26.1479 31.0917 26.4688 30.1875 26.4688ZM25.375 35V31.1938C23.8 30.6979 22.4656 29.8521 21.3719 28.6562C20.2781 27.4604 19.6146 26.075 19.3813 24.5H22.05C22.3417 25.7833 22.9833 26.8333 23.975 27.65C24.9667 28.4667 26.1625 28.875 27.5625 28.875H32.8125C33.425 28.875 33.9427 29.0865 34.3656 29.5094C34.7885 29.9323 35 30.45 35 31.0625V35H25.375Z" fill="#F2EBDF"/>
</svg>
