<svg width="35" height="35" viewBox="0 0 35 35" fill="none" xmlns="http://www.w3.org/2000/svg">
<path d="M11.6667 30.625V24.7917H23.3333V30.625H11.6667ZM4.375 23.6979V17.026C4.375 16.7101 4.43576 16.4062 4.55729 16.1146C4.67882 15.8229 4.86111 15.5799 5.10417 15.3854L16.0417 5.6875C16.2361 5.49306 16.4609 5.3533 16.7161 5.26823C16.9714 5.18316 17.2326 5.14062 17.5 5.14062C17.7674 5.14062 18.0286 5.18316 18.2839 5.26823C18.5391 5.3533 18.7639 5.49306 18.9583 5.6875L21.875 8.27604L4.375 23.6979ZM6.5625 30.625C5.95486 30.625 5.43837 30.4123 5.01302 29.987C4.58767 29.5616 4.375 29.0451 4.375 28.4375V25.6667L10.2083 20.4896V30.625H6.5625ZM24.7917 30.625V18.6667L18.5573 13.125L22.9688 9.22396L29.8958 15.3854C30.1389 15.6042 30.3212 15.8533 30.4427 16.1328C30.5642 16.4123 30.625 16.7101 30.625 17.026V28.4375C30.625 29.0451 30.4123 29.5616 29.987 29.987C29.5616 30.4123 29.0451 30.625 28.4375 30.625H24.7917Z" fill="#F2EBDF"/>
</svg>
