<svg width="35" height="35" viewBox="0 0 35 35" fill="none" xmlns="http://www.w3.org/2000/svg">
<path d="M4.01046 29.5312C3.3056 29.5312 2.70403 29.2821 2.20577 28.7838C1.70751 28.2856 1.45837 27.684 1.45837 26.9792C1.45837 26.2743 1.70751 25.6727 2.20577 25.1745C2.70403 24.6762 3.3056 24.4271 4.01046 24.4271C4.13199 24.4271 4.25351 24.4332 4.37504 24.4453C4.49657 24.4575 4.65456 24.4878 4.849 24.5365L12.1407 17.2448C12.0921 17.0503 12.0617 16.8924 12.0495 16.7708C12.0374 16.6493 12.0313 16.5278 12.0313 16.4062C12.0313 15.7014 12.2804 15.0998 12.7787 14.6016C13.277 14.1033 13.8785 13.8542 14.5834 13.8542C15.2882 13.8542 15.8898 14.1033 16.3881 14.6016C16.8863 15.0998 17.1355 15.7014 17.1355 16.4062C17.1355 16.4549 17.099 16.7344 17.0261 17.2448L21.0365 21.2552C21.2309 21.2066 21.3889 21.1762 21.5105 21.1641C21.632 21.1519 21.7535 21.1458 21.875 21.1458C21.9966 21.1458 22.1181 21.1519 22.2396 21.1641C22.3612 21.1762 22.5191 21.2066 22.7136 21.2552L28.5469 15.4219C28.4983 15.2274 28.4679 15.0694 28.4558 14.9479C28.4436 14.8264 28.4375 14.7049 28.4375 14.5833C28.4375 13.8785 28.6867 13.2769 29.1849 12.7786C29.6832 12.2804 30.2848 12.0312 30.9896 12.0312C31.6945 12.0312 32.296 12.2804 32.7943 12.7786C33.2926 13.2769 33.5417 13.8785 33.5417 14.5833C33.5417 15.2882 33.2926 15.8898 32.7943 16.388C32.296 16.8863 31.6945 17.1354 30.9896 17.1354C30.8681 17.1354 30.7466 17.1293 30.625 17.1172C30.5035 17.105 30.3455 17.0747 30.1511 17.026L24.3178 22.8594C24.3664 23.0538 24.3967 23.2118 24.4089 23.3333C24.421 23.4549 24.4271 23.5764 24.4271 23.6979C24.4271 24.4028 24.178 25.0043 23.6797 25.5026C23.1815 26.0009 22.5799 26.25 21.875 26.25C21.1702 26.25 20.5686 26.0009 20.0704 25.5026C19.5721 25.0043 19.323 24.4028 19.323 23.6979C19.323 23.5764 19.329 23.4549 19.3412 23.3333C19.3533 23.2118 19.3837 23.0538 19.4323 22.8594L15.4219 18.849C15.2275 18.8976 15.0695 18.928 14.948 18.9401C14.8264 18.9523 14.7049 18.9583 14.5834 18.9583C14.5348 18.9583 14.2553 18.9219 13.7448 18.849L6.45317 26.1406C6.50178 26.3351 6.53216 26.4931 6.54431 26.6146C6.55647 26.7361 6.56254 26.8576 6.56254 26.9792C6.56254 27.684 6.31341 28.2856 5.81515 28.7838C5.31688 29.2821 4.71532 29.5312 4.01046 29.5312ZM21.875 11.5573L20.7448 9.15104L18.3386 8.02083L20.7448 6.89062L21.875 4.48438L23.0053 6.89062L25.4115 8.02083L23.0053 9.15104L21.875 11.5573ZM5.83337 13.4167L5.10421 11.8125L3.50004 11.0833L5.10421 10.3542L5.83337 8.75L6.56254 10.3542L8.16671 11.0833L6.56254 11.8125L5.83337 13.4167Z" fill="#59564F"/>
</svg>
