<svg width="30" height="29" viewBox="0 0 30 29" fill="none" xmlns="http://www.w3.org/2000/svg">
<path d="M15.0033 7.06477C10.7468 7.06477 7.31344 10.3844 7.31344 14.5C7.31344 18.6156 10.7468 21.9352 15.0033 21.9352C19.2599 21.9352 22.6933 18.6156 22.6933 14.5C22.6933 10.3844 19.2599 7.06477 15.0033 7.06477ZM15.0033 19.3339C12.2527 19.3339 10.0039 17.1661 10.0039 14.5C10.0039 11.8339 12.246 9.66613 15.0033 9.66613C17.7607 9.66613 20.0028 11.8339 20.0028 14.5C20.0028 17.1661 17.754 19.3339 15.0033 19.3339ZM24.8015 6.76063C24.8015 7.72481 23.9983 8.49487 23.0078 8.49487C22.0106 8.49487 21.2142 7.71834 21.2142 6.76063C21.2142 5.80291 22.0173 5.02639 23.0078 5.02639C23.9983 5.02639 24.8015 5.80291 24.8015 6.76063ZM29.8946 8.52075C29.7808 6.19765 29.232 4.13985 27.4718 2.44444C25.7184 0.749024 23.5901 0.218398 21.1874 0.101919C18.7111 -0.033973 11.2889 -0.033973 8.8126 0.101919C6.41662 0.211927 4.28834 0.742553 2.52817 2.43797C0.767987 4.13338 0.225878 6.19117 0.10541 8.51428C-0.0351366 10.9086 -0.0351366 18.085 0.10541 20.4792C0.219186 22.8024 0.767987 24.8601 2.52817 26.5556C4.28834 28.251 6.40993 28.7816 8.8126 28.8981C11.2889 29.034 18.7111 29.034 21.1874 28.8981C23.5901 28.7881 25.7184 28.2574 27.4718 26.5556C29.2253 24.8601 29.7741 22.8024 29.8946 20.4792C30.0351 18.085 30.0351 10.915 29.8946 8.52075ZM26.6955 23.0483C26.1735 24.3166 25.1629 25.2937 23.8444 25.8049C21.8701 26.562 17.1852 26.3873 15.0033 26.3873C12.8215 26.3873 8.12995 26.5556 6.1623 25.8049C4.85053 25.3002 3.83993 24.323 3.31121 23.0483C2.52817 21.1393 2.70887 16.6096 2.70887 14.5C2.70887 12.3904 2.53486 7.85423 3.31121 5.95175C3.83324 4.68342 4.84384 3.70629 6.1623 3.19508C8.13664 2.43797 12.8215 2.61269 15.0033 2.61269C17.1852 2.61269 21.8767 2.44444 23.8444 3.19508C25.1562 3.69982 26.1668 4.67695 26.6955 5.95175C27.4785 7.8607 27.2978 12.3904 27.2978 14.5C27.2978 16.6096 27.4785 21.1458 26.6955 23.0483Z" fill="#F2EBDF"/>
</svg>
