<svg width="27" height="31" viewBox="0 0 27 31" fill="none" xmlns="http://www.w3.org/2000/svg">
<path d="M25.0714 1.9375H1.92254C0.86183 1.9375 0 2.81543 0 3.89316V27.1068C0 28.1846 0.86183 29.0625 1.92254 29.0625H25.0714C26.1321 29.0625 27 28.1846 27 27.1068V3.89316C27 2.81543 26.1321 1.9375 25.0714 1.9375ZM8.16027 25.1875H4.15848V12.2426H8.1663V25.1875H8.16027ZM6.15937 10.4746C4.87567 10.4746 3.83906 9.42715 3.83906 8.14355C3.83906 6.85996 4.87567 5.8125 6.15937 5.8125C7.43705 5.8125 8.47969 6.85996 8.47969 8.14355C8.47969 9.4332 7.44308 10.4746 6.15937 10.4746ZM23.1609 25.1875H19.1592V18.8906C19.1592 17.3891 19.129 15.4576 17.0799 15.4576C14.9946 15.4576 14.6752 17.0924 14.6752 18.7816V25.1875H10.6734V12.2426H14.5125V14.0105H14.5667C15.1031 12.9934 16.4109 11.9217 18.3576 11.9217C22.4076 11.9217 23.1609 14.6039 23.1609 18.0914V25.1875Z" fill="#F2EBDF"/>
</svg>
